<?xml version="1.0" encoding="UTF-8"?>
<svg width="31px" height="22px" viewBox="0 0 31 22" version="1.1" xmlns="http://www.w3.org/2000/svg" xmlns:xlink="http://www.w3.org/1999/xlink">
    <!-- Generator: Sketch 52.5 (67469) - http://www.bohemiancoding.com/sketch -->
    <title>分组 copy</title>
    <desc>Created with Sketch.</desc>
    <g id="茶虫web" stroke="none" stroke-width="1" fill="none" fill-rule="evenodd">
        <g id="切图" transform="translate(-12.000000, -683.000000)" fill-rule="nonzero">
            <g id="分组-copy" transform="translate(12.000000, 683.000000)">
                <path d="M7.94444444,9.9475983e-14 L29.3830409,9.32587341e-14 C29.7819133,9.10598437e-14 30.1052632,0.323349903 30.1052632,0.722222222 L30.1052632,12.9936709 C30.1052632,16.5835218 27.195114,19.4936709 23.6052632,19.4936709 L4.7573545,19.4936709 C4.17268363,19.4936709 3.59970337,19.6574506 3.1033556,19.9664473 L0.735942851,21.4402577 C0.510198307,21.5807928 0.21326996,21.511717 0.0727348262,21.2859724 C0.0251968845,21.2096112 7.157783e-14,21.1214604 7.08877401e-14,21.031511 L7.10542736e-14,7.94444444 C7.05169481e-14,3.55684893 3.55684893,1.00281971e-13 7.94444444,9.9475983e-14 Z" id="矩形" fill="#2C2C2C"></path>
                <path d="M17.3546461,8.64684335 L23.6771459,5.31862093 L6.72032361,14.2448491 L17.3546461,8.64684335 L24.0474025,10.0503737 L17.35392,8.64669108 Z M10.1259542,12.36587 L12.286116,7.41933885 L10.1259542,12.36587 Z" id="合并形状" stroke="#FFFFFF" stroke-width="1.68518519" stroke-linecap="round" stroke-linejoin="round"></path>
            </g>
        </g>
    </g>
</svg>